<svg id="Layer_1" data-name="Layer 1" xmlns="http://www.w3.org/2000/svg" viewBox="0 0 585 585"><defs><style>.cls-1{fill:#252525;}</style></defs><path class="cls-1" d="M18.47,40.83H221.23q-101.26,248.08-202,495l-.72-.09Z"/><path class="cls-1" d="M364.24,40.86H567V535.74l-.67.23Z"/><path class="cls-1" d="M203.64,439.24c29.74-71.7,59.06-142.41,89.08-214.8,43.74,105.91,86.89,210.39,130.21,315.31-2.1.15-3.44.33-4.78.33-24.84,0-49.68-.07-74.52.09-3.76,0-5.37-1.17-6.73-4.74-11.47-30.2-23.28-60.28-34.77-90.47-1.65-4.33-3.8-5.88-8.58-5.84C264,439.37,234.43,439.24,203.64,439.24Z"/></svg>