<svg id="Layer_1" data-name="Layer 1" xmlns="http://www.w3.org/2000/svg" viewBox="0 0 585 585"><defs><style>.cls-1{fill:#0095d2;}</style></defs><path class="cls-1" d="M417.07,125.86A89,89,0,0,0,452.39,75.4a92.59,92.59,0,0,1-.36,43.16c-4.46,11.65-11.34,22.15-16.69,33.4a435.57,435.57,0,0,1,91.24-58.79c-9.65,29.77-36.44,47.78-56.14,70.64,3.81,8.18,5.61,19.79,16,22.19a100.75,100.75,0,0,0,50,3.1c18.25-6.26,26.92-25.17,36-40.72v29.39a313.75,313.75,0,0,1-11.64,35c4,10.95,8.18,21.86,11.64,33v19c-4.28,7.37-8.84,14.53-13.26,21.8a106,106,0,0,0-21.38-23.26,80.65,80.65,0,0,0-37-2.5,64.28,64.28,0,0,0,48.29,29.42c-7.18,7.4-13.27,18.25-24.61,19.39-32.84,4.94-64.18-10.11-96.84-10-5.64.4-14.15.49-15.71,7.45,0,14.71,4.34,29.08,3.8,43.78-1.18,25.18-10.24,49.35-10.58,74.57a275.7,275.7,0,0,0,16.77,69c-10.47-1.54-20.9-3.33-31.26-5.21a129.12,129.12,0,0,0-5.2,12.69,90.19,90.19,0,0,0,22.79,23.91c-1.22,2.55-3.64,7.63-4.82,10.17L392,538.72c-2.62,4.95-5.26,9.85-8,14.79a88.48,88.48,0,0,0-44,1.22c-9.33-3.72-18.57-7.52-27.8-11.35a118.67,118.67,0,0,0,8.15-46.32c-5.65-19.65-32-19.69-40-37.56a124.9,124.9,0,0,1-20.45-57.06c-16.47-8.66-29.11-24.43-48-28-1,8.18-1.67,16.41-3.07,24.55a120.33,120.33,0,0,1-27,48.15c.78,8.44,1.58,16.85,2.4,25.31q10.38,9.74,20.67,19.5A196.26,196.26,0,0,1,176.3,506.2a221.48,221.48,0,0,1-33.76,1.54q-7.75-7.62-15.55-15.28a97.55,97.55,0,0,0,2.28-52.19c3.42-8,6.52-16.25,9.5-24.44A111.28,111.28,0,0,1,78.54,420,102.45,102.45,0,0,1,12.7,333.3a77.21,77.21,0,0,1,28.16-65.39,128.31,128.31,0,0,0-4.81,52.33,60.8,60.8,0,0,0,50,49.34,69.32,69.32,0,0,0,39.23-12.86A149.66,149.66,0,0,1,132.57,274a110.53,110.53,0,0,1,71.76-53.23,84.71,84.71,0,0,0,40.24-31.34,214.08,214.08,0,0,1,30.6-26.61c-4.56-4.39-9.06-8.81-13.61-13.19A43.1,43.1,0,0,0,290.2,115.4c25.7-6,51.05-13.23,76.44-20.23A76,76,0,0,0,395,107.29c6.34,6.93,9.89,23.16,22,18.57m-75.58,267.4c.84,15.37-1,33.32,13.49,43.12,0-15.11-.92-30.15-2-45.22Z"/></svg>