<svg id="Layer_1" data-name="Layer 1" xmlns="http://www.w3.org/2000/svg" viewBox="0 0 585 585"><defs><style>.cls-1{fill:#4e85bd;}</style></defs><path class="cls-1" d="M86.73,161.93c32.83,0,74.38,16.85,74.38,61,0,31.66-21.5,49.1-44.16,56.65,18,25.28,48.22,66.82,62.17,85.71H126.83L71,284.24H63.78V365.3H22.24V161.93Zm-23,87.16H80.05c20.92,0,36.61-7.56,36.61-25.28,0-16-12.5-26.73-31.09-26.73H63.78Z"/><path class="cls-1" d="M271.21,161.93c34.57,0,76.12,16.85,76.12,63,0,46.78-41.26,63.63-76.12,63.63H248v76.7H206.42V161.93ZM248,253.44h16.56c22.08,0,38.64-7.26,38.64-27.6,0-18-13.37-28.76-33.12-28.76H248Z"/><path class="cls-1" d="M474,283.08V247.92h90.35v79.32c-21.21,28.47-53.46,41.54-88.61,41.54-61.59,0-108.36-42.7-108.36-105.17,0-59.56,48.51-105.17,108.36-105.17,34.28,0,63,14.24,85.42,40.09l-28.77,25C518.16,207,499,194.76,475.74,194.76c-36.9,0-63.91,30.21-63.91,68.85,0,40.68,25.27,68.86,63.91,68.86a69.75,69.75,0,0,0,47.07-18.89v-30.5Z"/></svg>