<svg id="Layer_1" data-name="Layer 1" xmlns="http://www.w3.org/2000/svg" viewBox="0 0 585 585"><defs><style>.cls-1{fill:#242626;}</style></defs><path class="cls-1" d="M29.43,12A17.52,17.52,0,0,0,12,29.55v220.9a17.5,17.5,0,0,0,17.43,17.47h221a17.5,17.5,0,0,0,17.43-17.47V29.55A17.5,17.5,0,0,0,250.47,12Z"/><path class="cls-1" d="M333.53,12h0A17.52,17.52,0,0,0,316.1,29.55v220.9a17.5,17.5,0,0,0,17.43,17.47H554.44A17.51,17.51,0,0,0,572,250.45V29.55A17.5,17.5,0,0,0,554.44,12Z"/><path class="cls-1" d="M29.43,316.07A17.5,17.5,0,0,0,12,333.54v221A17.5,17.5,0,0,0,29.43,572h221a17.5,17.5,0,0,0,17.43-17.47v-221a17.5,17.5,0,0,0-17.43-17.47Z"/><path class="cls-1" d="M333.53,316.07h0a17.5,17.5,0,0,0-17.43,17.47v221A17.5,17.5,0,0,0,333.53,572H554.44A17.51,17.51,0,0,0,572,554.54v-221a17.51,17.51,0,0,0-17.57-17.47Z"/></svg>